<svg xmlns="http://www.w3.org/2000/svg" width="305.97" height="347.798" viewBox="0 0 305.97 347.798">
  <g id="Group_12" data-name="Group 12" transform="translate(-677.365 -379.539)">
    <path id="Path_94" data-name="Path 94" d="M830.346,449.83c-84.487,0-152.981,20.988-152.981,46.877s68.494,46.87,152.981,46.87,152.989-20.988,152.989-46.87S914.841,449.83,830.346,449.83Z" transform="translate(0 183.76)" fill="#d8d9da"/>
    <path id="Path_95" data-name="Path 95" d="M733.317,665.945c20.518,20.515,94.043,20.515,114.554,0V625.082c0-5.121,6.665-5.627,9.318-5.627.658,0,1.077.033,1.077.033s1.392.065,3.647.065c9.845,0,36.352-1.182,38.73-13.666,2.924-15.361-.4-45.974-.4-45.974a188.48,188.48,0,0,0,22.788-10.832c10.373-6.007,4-15.017,4-15.017-25.615-39.981-26.128-50.1-26.128-50.1-10.366-88.3-82.417-94.51-102.5-94.51-3.293,0-5.877.119-7.2.119-14.724,0-104.644,3.806-105.092,95.872,0,.224-.018.427-.018.647,0,77.689,29.937,85.369,40.881,109.538C742.233,629.307,733.317,665.945,733.317,665.945Z" transform="translate(22.817 25.918)" fill="#5b5b5b"/>
    <path id="Path_96" data-name="Path 96" d="M795.026,691.97c-25.047,0-50.094-5.757-61.609-17.276a6.1,6.1,0,0,1-1.608-5.8c.293-1.269,7.988-35.47-5.982-66.311-2.642-5.83-6.65-10.734-11.3-16.416C701.105,569.739,684.4,549.3,684.4,490.517c0-.072.007-.474.011-.549.488-99.223,99.884-102.085,111.218-102.085.474,0,1.124-.018,1.919-.04,1.4-.036,3.2-.083,5.284-.083,22.716,0,97.694,7.207,108.583,99.913.065.517,1.8,11,25.2,47.517a17.281,17.281,0,0,1,2.563,12.69c-.676,3.086-2.722,7.492-8.649,10.922a181.211,181.211,0,0,1-19.333,9.477c.824,9.354,2.273,30.638-.116,43.176-2.935,15.408-25.95,18.642-44.741,18.642-2.433,0-3.925-.072-3.925-.072-.221-.011-.459-.025-.8-.025a11.343,11.343,0,0,0-3.2.4v39.974a6.122,6.122,0,0,1-1.793,4.326C845.109,686.212,820.065,691.97,795.026,691.97Zm-50.672-23.934c20.518,15.773,81.976,15.65,101.825-.387V629.5c0-5.414,4.044-11.743,15.437-11.743.889,0,1.475.043,1.536.047.029,0,1.189.051,3.188.051,20.4,0,31.9-4.373,32.716-8.692,2.718-14.284-.437-43.874-.47-44.166a6.117,6.117,0,0,1,3.871-6.369,184.39,184.39,0,0,0,21.935-10.42c1.142-.661,2.559-1.706,2.826-2.946a5.333,5.333,0,0,0-.752-3.246c-25.376-39.583-27.143-51.366-27.241-53.321C889.546,406.424,823,400,802.833,400c-1.955,0-3.65.043-4.966.08-.929.025-1.684.043-2.237.043-16.459,0-98.558,4.33-98.973,89.775,0,.065-.007.459-.011.524,0,54.514,15.165,73.077,27.364,87.993,4.969,6.076,9.668,11.822,12.964,19.112C749.323,624.788,747.169,654.909,744.353,668.036Z" transform="translate(18.392 21.492)" fill="#ecb025"/>
    <path id="Path_97" data-name="Path 97" d="M786.271,381.233c-46.36,0-83.945,30.183-83.945,67.413,0,18.389,9.18,35.055,24.042,47.213h0l-7.25,44.683,45.67-26.713a103.672,103.672,0,0,0,21.483,2.237c46.36,0,83.941-30.183,83.941-67.421S832.632,381.233,786.271,381.233Z" transform="translate(65.255 4.429)" fill="#eaeaea"/>
    <path id="Path_98" data-name="Path 98" d="M723.541,551.091a6.122,6.122,0,0,1-6.043-7.1l6.7-41.282c-15.231-13.575-23.565-31.072-23.565-49.631,0-40.549,40.4-73.536,90.061-73.536s90.064,32.987,90.064,73.536-40.4,73.543-90.064,73.543a109.927,109.927,0,0,1-20.4-1.9l-43.668,25.535A6.1,6.1,0,0,1,723.541,551.091Zm67.153-159.31c-42.909,0-77.826,27.494-77.826,61.295,0,15.892,7.745,30.978,21.8,42.479a6.133,6.133,0,0,1,2.161,5.718l-5.172,31.856,34.462-20.153a6.048,6.048,0,0,1,4.355-.7,97.836,97.836,0,0,0,20.215,2.1c42.912,0,77.823-27.5,77.823-61.3S833.607,391.781,790.695,391.781Z" transform="translate(60.831 0)" fill="#ecb025"/>
    <path id="Path_99" data-name="Path 99" d="M755.862,465.259s41.9-25.6,41.9-52.129a22.5,22.5,0,0,0-41.9-11.417,22.5,22.5,0,0,0-41.9,11.417C713.958,439.663,755.862,465.259,755.862,465.259Z" transform="translate(95.664 28.943)" fill="#5b5b5b"/>
    <path id="Path_100" data-name="Path 100" d="M760.285,475.807a6.092,6.092,0,0,1-3.191-.9c-1.833-1.12-44.828-27.729-44.828-57.351a28.6,28.6,0,0,1,48.019-21.039,28.6,28.6,0,0,1,48.023,21.039c0,29.623-43.006,56.231-44.835,57.351A6.1,6.1,0,0,1,760.285,475.807ZM740.9,401.158a16.419,16.419,0,0,0-16.4,16.4c0,17.255,23.453,36.569,35.785,44.849,12.332-8.28,35.781-27.595,35.781-44.849a16.383,16.383,0,0,0-30.515-8.306,6.117,6.117,0,0,1-5.266,3h0a6.12,6.12,0,0,1-5.273-3.007A16.253,16.253,0,0,0,740.9,401.158Z" transform="translate(91.241 24.514)" fill="#ecb025"/>
  </g>
</svg>
