<svg xmlns="http://www.w3.org/2000/svg" width="87.551" height="90.132" viewBox="0 0 87.551 90.132">
  <g id="Group_28" data-name="Group 28" transform="translate(1715.155 -29.872)">
    <path id="Path_28" data-name="Path 28" d="M-1610.217,81.236l7.293-23.3s.992-2.8,6.747-6.672c7.761-5.224,9.08-14.826.994-18.368s-19.379-5.188-20.8,1.978,3.917,13.664,1.6,18.2-10.966,36.14-10.966,36.14Z" transform="translate(-51.719)" fill="#ecb025"/>
    <path id="Path_29" data-name="Path 29" d="M-1637.062,80.89c-4.4-.7-8.4-1.284-12.031-1.768a28.236,28.236,0,0,0-2.8,2.309c9.718,1.17,16.116,2.756,16.052,4.252-.1,2.349-16.093,3.581-35.722,2.753s-35.463-3.4-35.363-5.753,16.092-3.582,35.722-2.753q2.574.109,5.051.257c.015-.03.032-.073.046-.1a5.815,5.815,0,0,0,.589-2.766c-6.646-.545-9.929-.54-9.929-.54-33.645-.067-43.246,2.3-38.626,20.125,6.323,24.4,27.928,33.064,27.928,33.064l-1.034,2.583c-10.849-1.034-11.882,10.332-11.882,10.332,28.93,9.3,53.728,0,53.728,0-2.066-12.4-10.849-9.3-10.849-9.3v-5.166C-1645.328,128.419-1611.231,85.023-1637.062,80.89Z" transform="translate(0 -27.014)" fill="#1a1818"/>
    <circle id="Ellipse_1" data-name="Ellipse 1" cx="11.394" cy="11.394" r="11.394" transform="translate(-1702.205 70.117)" fill="#ecb025"/>
    <g id="Group_3" data-name="Group 3" transform="translate(-1697.648 74.224)">
      <path id="Path_30" data-name="Path 30" d="M-1665.05,137.574a2.92,2.92,0,0,1-.295,1.3,3.266,3.266,0,0,1-.813,1.05,3.6,3.6,0,0,1-1.18.676l3.242,3.944-1.929-.014-3.07-3.728h-3.224v3.728h-1.555V134.451h5.571a3.26,3.26,0,0,1,1.6.411,3.317,3.317,0,0,1,1.195,1.108A2.881,2.881,0,0,1-1665.05,137.574Zm-3.656-1.626h-3.613V139.3h3.7a2.011,2.011,0,0,0,.972-.238,1.9,1.9,0,0,0,.7-.633,1.558,1.558,0,0,0,.259-.871,1.349,1.349,0,0,0-.274-.827,1.847,1.847,0,0,0-.734-.576A2.423,2.423,0,0,0-1668.706,135.948Z" transform="translate(1673.874 -134.451)" fill="#030504"/>
    </g>
    <g id="Group_4" data-name="Group 4" transform="translate(-1694.055 79.312)">
      <path id="Path_31" data-name="Path 31" d="M-1665.4,156.524l8.636-10.075h2l-4.188,5.066,4.347,5.009h-2.1l-3.411-4.059-3.282,4.059Z" transform="translate(1665.403 -146.449)" fill="#030504"/>
    </g>
  </g>
</svg>
