<svg xmlns="http://www.w3.org/2000/svg" width="364" height="329.387" viewBox="0 0 364 329.387">
  <g id="Group_11" data-name="Group 11" transform="translate(-198.307 -127.521)">
    <path id="Path_86" data-name="Path 86" d="M380.309,289.716c100.517,0,182-24.973,182-55.764s-81.481-55.764-182-55.764-182,24.969-182,55.764S279.788,289.716,380.309,289.716Z" transform="translate(0 167.191)" fill="#d8d9da"/>
    <rect id="Rectangle_13" data-name="Rectangle 13" width="343.212" height="247.667" rx="44" transform="translate(208.702 134.802)"/>
    <rect id="Rectangle_14" data-name="Rectangle 14" width="251.568" height="183.531" transform="translate(254.522 166.87)" fill="#e5e5e5"/>
    <path id="Path_87" data-name="Path 87" d="M211.643,224.3a7.283,7.283,0,0,1-7.284-7.28V159.288a7.282,7.282,0,0,1,14.563,0v57.729A7.28,7.28,0,0,1,211.643,224.3Z" transform="translate(19.97 80.802)" fill="#7c7c7c"/>
    <path id="Path_88" data-name="Path 88" d="M280.807,195.207a7.282,7.282,0,0,1-7.284-7.284V160.4a7.282,7.282,0,1,1,14.563,0v27.519A7.281,7.281,0,0,1,280.807,195.207Z" transform="translate(248.198 84.472)" fill="#7c7c7c"/>
    <path id="Path_89" data-name="Path 89" d="M280.807,182.4a7.281,7.281,0,0,1-7.284-7.28V147.6a7.282,7.282,0,0,1,14.563,0v27.523A7.28,7.28,0,0,1,280.807,182.4Z" transform="translate(248.198 42.231)" fill="#7c7c7c"/>
    <path id="Path_90" data-name="Path 90" d="M280.807,208a7.281,7.281,0,0,1-7.284-7.28V173.2a7.282,7.282,0,0,1,14.563,0v27.523A7.28,7.28,0,0,1,280.807,208Z" transform="translate(248.198 126.716)" fill="#7c7c7c"/>
    <path id="Path_91" data-name="Path 91" d="M374.33,183a40.621,40.621,0,0,0-75.638-20.618A40.618,40.618,0,0,0,223.059,183c0,47.9,75.634,94.1,75.634,94.1S374.33,230.891,374.33,183Z" transform="translate(81.677 48.916)" fill="#ecb025"/>
    <path id="Path_92" data-name="Path 92" d="M242.528,169.54A20.637,20.637,0,1,1,221.893,148.9,20.639,20.639,0,0,1,242.528,169.54Z" transform="translate(9.724 70.55)" fill="#e5e5e5"/>
    <path id="Path_93" data-name="Path 93" d="M517.453,127.521H238.383a39.394,39.394,0,0,0-39.352,39.343V350.406a39.394,39.394,0,0,0,39.352,39.343h279.07A39.392,39.392,0,0,0,556.8,350.406V166.864A39.392,39.392,0,0,0,517.453,127.521Zm24.789,222.885a24.812,24.812,0,0,1-24.789,24.784H238.383a24.815,24.815,0,0,1-24.788-24.784V263.214a27.846,27.846,0,0,0,31.255,0V350.4a7.278,7.278,0,0,0,7.284,7.28H503.7a7.277,7.277,0,0,0,7.279-7.28V166.868a7.28,7.28,0,0,0-7.279-7.28H252.134a7.281,7.281,0,0,0-7.284,7.28v50.1a27.857,27.857,0,0,0-31.255,0V166.864a24.815,24.815,0,0,1,24.788-24.784h279.07a24.812,24.812,0,0,1,24.789,24.784ZM215.869,240.09a13.357,13.357,0,1,1,13.355,13.36A13.368,13.368,0,0,1,215.869,240.09Zm197.1-56.112a48.105,48.105,0,0,0-34.992,15.251,47.878,47.878,0,0,0-82.917,32.683c0,9.666,2.687,19.177,7.073,28.258H259.413V174.148h237V260.17H453.829c4.386-9.081,7.073-18.592,7.073-28.258A47.988,47.988,0,0,0,412.972,183.977Zm8.763,76.193L410.371,239.6a7.375,7.375,0,0,0-6.656-3.754,7.281,7.281,0,0,0-6.346,4.257L380.6,276.858,360.278,222.34a7.284,7.284,0,0,0-13.467-.443L329.6,260.17H318.51c-5.409-9.141-8.883-18.717-8.883-28.258A33.338,33.338,0,0,1,371.711,215a7.284,7.284,0,0,0,12.538,0,33.339,33.339,0,0,1,62.089,16.911c0,9.533-3.487,19.113-8.9,28.258Zm5.28,14.563c-16.872,20.274-40.027,36.626-49.039,42.611-9.017-5.981-32.184-22.329-49.056-42.611h5.4a7.285,7.285,0,0,0,6.643-4.3l11.867-26.4L373.1,298.425a7.286,7.286,0,0,0,6.566,4.734c.082,0,.172,0,.258,0a7.292,7.292,0,0,0,6.626-4.261L404.618,259.3l6.45,11.678a7.284,7.284,0,0,0,6.372,3.758Zm-116.25,0c22.411,32.12,61.13,56.1,63.422,57.493a7.277,7.277,0,0,0,7.585,0c2.292-1.4,41.012-25.373,63.418-57.493h51.224v68.388h-237V274.733Z" transform="translate(2.389 0)" fill="#7c7c7c"/>
  </g>
</svg>
