<svg xmlns="http://www.w3.org/2000/svg" width="398" height="368.01" viewBox="0 0 398 368.01">
  <g id="Group_10" data-name="Group 10" transform="translate(-678.307 -403.34)">
    <path id="Path_70" data-name="Path 70" d="M877.3,455.68c-109.9,0-199,27.3-199,60.977s89.1,60.963,199,60.963,199-27.3,199-60.963S987.211,455.68,877.3,455.68Z" transform="translate(0 193.73)" fill="#d8d9da"/>
    <rect id="Rectangle_5" data-name="Rectangle 5" width="274.93" height="193.546" rx="46" transform="translate(1030.771 411.3) rotate(90)" fill="#ecb025"/>
    <path id="Path_71" data-name="Path 71" d="M876.84,694.191H753.457a43.088,43.088,0,0,1-43.041-43.046V446.376a43.08,43.08,0,0,1,43.041-43.036H876.84a43.083,43.083,0,0,1,43.041,43.036V651.145A43.091,43.091,0,0,1,876.84,694.191ZM753.457,419.264a27.151,27.151,0,0,0-27.118,27.113V651.145a27.152,27.152,0,0,0,27.118,27.122H876.84a27.149,27.149,0,0,0,27.118-27.122V446.376a27.148,27.148,0,0,0-27.118-27.113Z" transform="translate(118.848)"/>
    <path id="Rectangle_6" data-name="Rectangle 6" d="M3.985,0H41.367a3.984,3.984,0,0,1,3.984,3.984V41.363a3.984,3.984,0,0,1-3.984,3.984H3.986A3.986,3.986,0,0,1,0,41.361V3.985A3.985,3.985,0,0,1,3.985,0Z" transform="translate(995.368 446.432) rotate(90)" fill="#9b9b9b"/>
    <path id="Path_72" data-name="Path 72" d="M766.57,472.086h-3.051a29.151,29.151,0,0,1-29.111-29.12v-3.047a29.139,29.139,0,0,1,29.111-29.106h3.051a29.138,29.138,0,0,1,29.106,29.106v3.047A29.15,29.15,0,0,1,766.57,472.086Zm-3.051-45.354a13.2,13.2,0,0,0-13.187,13.187v3.047a13.209,13.209,0,0,0,13.187,13.2h3.051a13.209,13.209,0,0,0,13.188-13.2v-3.047a13.2,13.2,0,0,0-13.187-13.187Z" transform="translate(207.651 27.66)"/>
    <path id="Rectangle_7" data-name="Rectangle 7" d="M3.984,0H41.367a3.984,3.984,0,0,1,3.984,3.984V41.362a3.985,3.985,0,0,1-3.985,3.985H3.986A3.986,3.986,0,0,1,0,41.361V3.984A3.984,3.984,0,0,1,3.984,0Z" transform="translate(917.974 446.432) rotate(90)" fill="#9b9b9b"/>
    <path id="Path_73" data-name="Path 73" d="M750.1,472.086h-3.042a29.155,29.155,0,0,1-29.116-29.12v-3.047a29.143,29.143,0,0,1,29.116-29.106H750.1a29.142,29.142,0,0,1,29.111,29.106v3.047A29.154,29.154,0,0,1,750.1,472.086Zm-3.042-45.354a13.208,13.208,0,0,0-13.2,13.187v3.047a13.216,13.216,0,0,0,13.2,13.2H750.1a13.212,13.212,0,0,0,13.192-13.2v-3.047A13.2,13.2,0,0,0,750.1,426.732Z" transform="translate(146.719 27.66)"/>
    <path id="Rectangle_8" data-name="Rectangle 8" d="M3.985,0H41.358a3.984,3.984,0,0,1,3.984,3.984V41.363a3.984,3.984,0,0,1-3.984,3.984H3.984A3.984,3.984,0,0,1,0,41.363V3.985A3.985,3.985,0,0,1,3.985,0Z" transform="translate(995.368 526.09) rotate(90)" fill="#9b9b9b"/>
    <path id="Path_74" data-name="Path 74" d="M766.57,489.02h-3.051a29.138,29.138,0,0,1-29.111-29.106v-3.051a29.138,29.138,0,0,1,29.111-29.106h3.051a29.137,29.137,0,0,1,29.106,29.106v3.051A29.137,29.137,0,0,1,766.57,489.02Zm-3.051-45.34a13.2,13.2,0,0,0-13.187,13.183v3.051a13.2,13.2,0,0,0,13.187,13.192h3.051a13.2,13.2,0,0,0,13.188-13.192v-3.051A13.2,13.2,0,0,0,766.57,443.68Z" transform="translate(207.651 90.373)"/>
    <path id="Rectangle_9" data-name="Rectangle 9" d="M3.984,0H41.358a3.984,3.984,0,0,1,3.984,3.984V41.362a3.985,3.985,0,0,1-3.985,3.985H3.984A3.984,3.984,0,0,1,0,41.363V3.984A3.984,3.984,0,0,1,3.984,0Z" transform="translate(917.974 526.09) rotate(90)" fill="#9b9b9b"/>
    <path id="Path_75" data-name="Path 75" d="M750.1,489.02h-3.042a29.143,29.143,0,0,1-29.116-29.106v-3.051a29.143,29.143,0,0,1,29.116-29.106H750.1a29.141,29.141,0,0,1,29.111,29.106v3.051A29.142,29.142,0,0,1,750.1,489.02Zm-3.042-45.34a13.2,13.2,0,0,0-13.2,13.183v3.051a13.212,13.212,0,0,0,13.2,13.192H750.1A13.209,13.209,0,0,0,763.3,459.913v-3.051A13.2,13.2,0,0,0,750.1,443.68Z" transform="translate(146.719 90.373)"/>
    <path id="Rectangle_10" data-name="Rectangle 10" d="M3.985,0H41.367a3.984,3.984,0,0,1,3.984,3.984V41.363a3.984,3.984,0,0,1-3.984,3.984H3.986A3.986,3.986,0,0,1,0,41.361V3.985A3.985,3.985,0,0,1,3.985,0Z" transform="translate(995.368 605.747) rotate(90)" fill="#9b9b9b"/>
    <path id="Path_76" data-name="Path 76" d="M766.57,505.977h-3.051a29.151,29.151,0,0,1-29.111-29.12V473.81A29.142,29.142,0,0,1,763.519,444.7h3.051a29.141,29.141,0,0,1,29.106,29.111v3.047A29.15,29.15,0,0,1,766.57,505.977Zm-3.051-45.354a13.2,13.2,0,0,0-13.187,13.187v3.047a13.209,13.209,0,0,0,13.187,13.2h3.051a13.209,13.209,0,0,0,13.188-13.2V473.81a13.2,13.2,0,0,0-13.187-13.187Z" transform="translate(207.651 153.085)"/>
    <path id="Rectangle_11" data-name="Rectangle 11" d="M3.984,0H41.367a3.984,3.984,0,0,1,3.984,3.984V41.362a3.985,3.985,0,0,1-3.985,3.985H3.986A3.986,3.986,0,0,1,0,41.361V3.984A3.984,3.984,0,0,1,3.984,0Z" transform="translate(917.974 605.747) rotate(90)" fill="#9b9b9b"/>
    <path id="Path_77" data-name="Path 77" d="M750.1,505.977h-3.042a29.155,29.155,0,0,1-29.116-29.12V473.81A29.147,29.147,0,0,1,747.062,444.7H750.1a29.146,29.146,0,0,1,29.111,29.111v3.047A29.154,29.154,0,0,1,750.1,505.977Zm-3.042-45.354a13.208,13.208,0,0,0-13.2,13.187v3.047a13.216,13.216,0,0,0,13.2,13.2H750.1a13.212,13.212,0,0,0,13.192-13.2V473.81A13.2,13.2,0,0,0,750.1,460.623Z" transform="translate(146.719 153.085)"/>
    <path id="Path_78" data-name="Path 78" d="M687.992,434.793V600.6c0,15.138,34.236,27.418,76.468,27.418s76.463-12.28,76.463-27.418V434.793Z" transform="translate(35.848 116.419)" fill="#ecb025"/>
    <path id="Path_79" data-name="Path 79" d="M770.726,642.246c-41.955,0-84.427-12.158-84.427-35.387v-165.8a7.96,7.96,0,0,1,7.959-7.959H847.19a7.964,7.964,0,0,1,7.964,7.959v165.8C855.154,630.088,812.686,642.246,770.726,642.246ZM702.218,449.019V606.858c0,6.869,26.008,19.464,68.509,19.464s68.5-12.6,68.5-19.464V449.019Z" transform="translate(29.581 110.153)"/>
    <path id="Path_80" data-name="Path 80" d="M812.273,422.375H716.647l-28.655,58.382c0,15.143,34.236,27.419,76.468,27.419s76.463-12.275,76.463-27.419Z" transform="translate(35.848 70.456)" fill="#ecb025"/>
    <circle id="Ellipse_4" data-name="Ellipse 4" cx="47.813" cy="47.813" r="47.813" transform="translate(752.494 608.456)" fill="#9b9b9b"/>
    <path id="Path_81" data-name="Path 81" d="M748.17,556.825a55.775,55.775,0,1,1,55.772-55.772A55.832,55.832,0,0,1,748.17,556.825Zm0-95.626a39.851,39.851,0,1,0,39.849,39.854A39.9,39.9,0,0,0,748.17,461.2Z" transform="translate(52.138 155.217)"/>
    <path id="Path_82" data-name="Path 82" d="M752.2,473.8H736.845V458.45a7.962,7.962,0,1,0-15.924,0V473.8H705.567a7.962,7.962,0,1,0,0,15.924h15.355v15.364a7.962,7.962,0,0,0,15.924,0V489.724H752.2a7.962,7.962,0,0,0,0-15.924Z" transform="translate(71.422 174.505)"/>
    <path id="Path_83" data-name="Path 83" d="M694.087,413.344V455.8c0,9.469,21.406,17.146,47.813,17.146s47.813-7.677,47.813-17.146V413.344Z" transform="translate(58.408 37.029)" fill="#ecb025"/>
    <path id="Path_84" data-name="Path 84" d="M854.336,516.947,826.5,460.23V419.614a7.963,7.963,0,0,0-7.959-7.964H722.913a7.965,7.965,0,0,0-7.964,7.964v40.6l-27.837,56.732a7.932,7.932,0,0,0-.813,3.507c0,23.23,42.472,35.378,84.427,35.378s84.428-12.148,84.428-35.378A7.938,7.938,0,0,0,854.336,516.947ZM730.873,427.574h79.721l.071,33.352c-.033.221-.024.451-.038.677-1.42,2.783-15.186,9.652-39.9,9.652-24.828,0-38.636-6.93-39.853-9.182Zm39.853,112.34c-39.962,0-65.349-11.138-68.236-18.176L724.5,476.91c10.714,6.972,28.871,10.268,46.224,10.268s35.51-3.3,46.229-10.268l22,44.828C836.066,528.776,810.688,539.913,770.726,539.913Z" transform="translate(29.581 30.758)"/>
    <ellipse id="Ellipse_5" data-name="Ellipse 5" cx="47.813" cy="17.144" rx="47.813" ry="17.144" transform="translate(752.494 433.228)" fill="#ecb025"/>
    <path id="Path_85" data-name="Path 85" d="M748.17,458.215c-26.864,0-55.777-7.851-55.777-25.105S721.307,408,748.17,408s55.772,7.851,55.772,25.105S775.034,458.215,748.17,458.215Zm-39.59-25.105c2.581,3.018,16.187,9.182,39.59,9.182s37.014-6.163,39.6-9.182c-2.591-3.023-16.2-9.182-39.6-9.182S711.165,430.086,708.58,433.109Zm79.529.513h0Z" transform="translate(52.138 17.263)"/>
  </g>
</svg>
