<svg xmlns="http://www.w3.org/2000/svg" width="211" height="211" viewBox="0 0 211 211">
  <g id="Group_16" data-name="Group 16" transform="translate(-224.975 310.856)">
    <circle id="Ellipse_6" data-name="Ellipse 6" cx="105.5" cy="105.5" r="105.5" transform="translate(224.975 -310.857)" fill="#1a1818"/>
    <g id="Group_14" data-name="Group 14" transform="translate(267.074 -272.915)">
      <path id="Path_102" data-name="Path 102" d="M326.083-264.337a26.944,26.944,0,0,1-2.726,11.966,30.123,30.123,0,0,1-7.513,9.706,33.357,33.357,0,0,1-10.9,6.25l29.95,36.43-17.817-.131-28.354-34.439H258.936v34.439H244.575v-93.076h51.457a30.139,30.139,0,0,1,14.827,3.791,30.639,30.639,0,0,1,11.034,10.237A26.606,26.606,0,0,1,326.083-264.337ZM292.31-279.364H258.936v30.981h34.171a18.565,18.565,0,0,0,8.976-2.193,17.5,17.5,0,0,0,6.448-5.851,14.379,14.379,0,0,0,2.395-8.044,12.5,12.5,0,0,0-2.526-7.646,17.028,17.028,0,0,0-6.781-5.316A22.32,22.32,0,0,0,292.31-279.364Z" transform="translate(-244.575 293.192)" fill="#fff"/>
    </g>
    <g id="Group_15" data-name="Group 15" transform="translate(300.259 -225.911)">
      <path id="Path_103" data-name="Path 103" d="M260.025-178.234,339.8-271.308h18.485l-38.694,46.8,40.155,46.272H340.335l-31.512-37.5-30.315,37.5Z" transform="translate(-260.025 271.308)" fill="#fff"/>
    </g>
  </g>
</svg>
