<svg xmlns="http://www.w3.org/2000/svg" width="398" height="365.007" viewBox="0 0 398 365.007">
  <g id="Group_9" data-name="Group 9" transform="translate(71.171 -827.726)">
    <path id="Path_33" data-name="Path 33" d="M108.266,997.111c95.618,0,173.117-23.75,173.117-53.034,0-29.3-77.5-53.042-173.117-53.042S-64.843,914.778-64.843,944.078C-64.843,973.361,12.656,997.111,108.266,997.111Z" transform="translate(19.553 195.621)" fill="#d8d9da"/>
    <path id="Path_34" data-name="Path 34" d="M-.825,1091.091a6.927,6.927,0,0,1-6.924-6.924V834.65a6.924,6.924,0,0,1,6.924-6.924A6.925,6.925,0,0,1,6.1,834.65v249.516A6.928,6.928,0,0,1-.825,1091.091Z" transform="translate(195.967 0)" fill="#ecb025"/>
    <path id="Path_35" data-name="Path 35" d="M218.194,872.078H-31.331a6.929,6.929,0,0,1-6.924-6.924,6.922,6.922,0,0,1,6.924-6.924H218.194a6.924,6.924,0,1,1,0,13.848Z" transform="translate(101.707 94.254)" fill="#ecb025"/>
    <path id="Path_36" data-name="Path 36" d="M188.844,981.586a6.867,6.867,0,0,1-3.452-.924L-30.7,855.9a6.922,6.922,0,0,1-2.536-9.46,6.933,6.933,0,0,1,9.46-2.532L192.316,968.663a6.927,6.927,0,0,1-3.472,12.924Z" transform="translate(114.338 47.125)" fill="#ecb025"/>
    <path id="Path_37" data-name="Path 37" d="M-16.08,1061.76a6.88,6.88,0,0,1-3.456-.932,6.919,6.919,0,0,1-2.536-9.46L102.69,835.282a6.924,6.924,0,1,1,12,6.92L-10.08,1058.3A6.917,6.917,0,0,1-16.08,1061.76Z" transform="translate(148.836 12.619)" fill="#ecb025"/>
    <path id="Path_38" data-name="Path 38" d="M-27.234,981.588a6.914,6.914,0,0,1-6-3.464,6.923,6.923,0,0,1,2.536-9.46L185.392,843.906a6.924,6.924,0,0,1,6.924,11.992L-23.778,980.664A6.893,6.893,0,0,1-27.234,981.588Z" transform="translate(114.338 47.124)" fill="#ecb025"/>
    <path id="Path_39" data-name="Path 39" d="M108.69,1061.76a6.922,6.922,0,0,1-6-3.464L-22.072,842.2a6.922,6.922,0,0,1,2.536-9.46,6.911,6.911,0,0,1,9.456,2.54l124.766,216.085a6.933,6.933,0,0,1-6,10.392Z" transform="translate(148.836 12.619)" fill="#ecb025"/>
    <path id="Path_40" data-name="Path 40" d="M71.568,1040.286A102.742,102.742,0,1,1,174.311,937.544,102.745,102.745,0,0,1,71.568,1040.286Z" transform="translate(123.574 21.864)" fill="#595959"/>
    <path id="Path_41" data-name="Path 41" d="M76.8,1052.445A109.669,109.669,0,1,1,186.47,942.779,109.793,109.793,0,0,1,76.8,1052.445Zm0-205.484a95.818,95.818,0,1,0,95.818,95.818A95.928,95.928,0,0,0,76.8,846.961Z" transform="translate(118.343 16.63)" fill="#ecb025"/>
    <path id="Path_42" data-name="Path 42" d="M14.95,885.69a14.679,14.679,0,1,1,14.679-14.674A14.676,14.676,0,0,1,14.95,885.69Z" transform="translate(220.748 88.393)" fill="#c6c6c6"/>
    <path id="Path_43" data-name="Path 43" d="M20.181,897.839a21.6,21.6,0,1,1,21.607-21.6A21.626,21.626,0,0,1,20.181,897.839Zm0-29.349a7.748,7.748,0,1,0,7.754,7.75A7.759,7.759,0,0,0,20.181,868.49Z" transform="translate(215.517 83.168)" fill="#ecb025"/>
    <path id="Path_44" data-name="Path 44" d="M17.691,902.2A14.679,14.679,0,1,1,32.369,887.52,14.68,14.68,0,0,1,17.691,902.2Z" transform="translate(229.23 139.413)" fill="#c6c6c6"/>
    <path id="Path_45" data-name="Path 45" d="M22.925,914.361a21.6,21.6,0,1,1,21.607-21.607A21.628,21.628,0,0,1,22.925,914.361Zm0-29.357a7.752,7.752,0,1,0,7.754,7.75A7.764,7.764,0,0,0,22.925,885Z" transform="translate(223.996 134.179)" fill="#ecb025"/>
    <path id="Path_46" data-name="Path 46" d="M1.232,871.817A14.679,14.679,0,1,1,15.91,857.134,14.682,14.682,0,0,1,1.232,871.817Z" transform="translate(178.373 45.526)" fill="#c6c6c6"/>
    <path id="Path_47" data-name="Path 47" d="M6.466,883.979a21.607,21.607,0,1,1,21.611-21.607A21.626,21.626,0,0,1,6.466,883.979Zm0-29.365a7.756,7.756,0,1,0,7.759,7.758A7.768,7.768,0,0,0,6.466,854.613Z" transform="translate(173.139 40.289)" fill="#ecb025"/>
    <path id="Path_48" data-name="Path 48" d="M18.96,869.284A14.679,14.679,0,1,1,33.638,854.61,14.684,14.684,0,0,1,18.96,869.284Z" transform="translate(233.139 37.7)" fill="#c6c6c6"/>
    <path id="Path_49" data-name="Path 49" d="M24.188,881.443a21.6,21.6,0,1,1,21.6-21.6A21.623,21.623,0,0,1,24.188,881.443Zm0-29.357a7.753,7.753,0,1,0,7.754,7.759A7.762,7.762,0,0,0,24.188,852.086Z" transform="translate(227.911 32.466)" fill="#ecb025"/>
    <path id="Path_50" data-name="Path 50" d="M185.274,891.069H-64.247a6.922,6.922,0,0,1-6.924-6.925,6.924,6.924,0,0,1,6.924-6.924h249.52a6.924,6.924,0,1,1,0,13.849Z" transform="translate(0 152.931)" fill="#ecb025"/>
    <path id="Path_51" data-name="Path 51" d="M-33.743,1110.089a6.927,6.927,0,0,1-6.924-6.924V853.64a6.924,6.924,0,0,1,6.924-6.924,6.925,6.925,0,0,1,6.928,6.924v249.524A6.928,6.928,0,0,1-33.743,1110.089Z" transform="translate(94.254 58.677)" fill="#ecb025"/>
    <path id="Path_52" data-name="Path 52" d="M-49,1080.745a6.862,6.862,0,0,1-3.452-.925,6.922,6.922,0,0,1-2.536-9.46L69.768,854.266a6.926,6.926,0,1,1,12,6.929L-43,1077.289A6.911,6.911,0,0,1-49,1080.745Z" transform="translate(47.126 71.302)" fill="#ecb025"/>
    <path id="Path_53" data-name="Path 53" d="M155.927,1000.575a6.867,6.867,0,0,1-3.456-.924L-63.618,874.892a6.926,6.926,0,0,1-2.536-9.464,6.934,6.934,0,0,1,9.46-2.536L159.4,987.651a6.924,6.924,0,0,1-3.468,12.924Z" transform="translate(12.627 105.804)" fill="#ecb025"/>
    <path id="Path_54" data-name="Path 54" d="M75.772,1080.745a6.921,6.921,0,0,1-6-3.456L-54.99,861.2a6.933,6.933,0,0,1,2.536-9.468A6.926,6.926,0,0,1-43,854.266L81.764,1070.36a6.918,6.918,0,0,1-5.992,10.385Z" transform="translate(47.126 71.302)" fill="#ecb025"/>
    <path id="Path_55" data-name="Path 55" d="M-60.154,1000.576a6.9,6.9,0,0,1-6-3.456,6.929,6.929,0,0,1,2.536-9.468l216.09-124.758a6.927,6.927,0,0,1,6.924,12L-56.694,999.652A6.914,6.914,0,0,1-60.154,1000.576Z" transform="translate(12.627 105.802)" fill="#ecb025"/>
    <path id="Path_56" data-name="Path 56" d="M141.394,956.534A102.744,102.744,0,1,1,38.647,853.792,102.74,102.74,0,0,1,141.394,956.534Z" transform="translate(21.864 80.541)" fill="#595959"/>
    <path id="Path_57" data-name="Path 57" d="M43.878,1071.436A109.669,109.669,0,1,1,153.553,961.765,109.8,109.8,0,0,1,43.878,1071.436Zm0-205.489A95.818,95.818,0,1,0,139.7,961.765,95.924,95.924,0,0,0,43.878,865.947Z" transform="translate(16.633 75.31)" fill="#ecb025"/>
    <path id="Path_58" data-name="Path 58" d="M-13.209,880.09a14.671,14.671,0,0,1-14.679,14.675A14.67,14.67,0,0,1-42.562,880.09a14.68,14.68,0,0,1,14.675-14.683A14.68,14.68,0,0,1-13.209,880.09Z" transform="translate(88.399 116.43)" fill="#c6c6c6"/>
    <path id="Path_59" data-name="Path 59" d="M-22.656,906.914a21.623,21.623,0,0,1-21.6-21.6,21.618,21.618,0,0,1,21.6-21.6,21.622,21.622,0,0,1,21.607,21.6A21.627,21.627,0,0,1-22.656,906.914Zm0-29.353a7.759,7.759,0,0,0-7.746,7.754,7.755,7.755,0,0,0,7.746,7.751,7.762,7.762,0,0,0,7.754-7.751A7.766,7.766,0,0,0-22.656,877.56Z" transform="translate(83.168 111.205)" fill="#ecb025"/>
    <path id="Path_60" data-name="Path 60" d="M.773,893.8a14.681,14.681,0,0,1-14.679,14.675A14.679,14.679,0,0,1-28.584,893.8a14.68,14.68,0,0,1,14.679-14.682A14.683,14.683,0,0,1,.773,893.8Z" transform="translate(131.589 158.808)" fill="#c6c6c6"/>
    <path id="Path_61" data-name="Path 61" d="M-8.674,920.635a21.626,21.626,0,0,1-21.6-21.6,21.633,21.633,0,0,1,21.6-21.607,21.631,21.631,0,0,1,21.6,21.607A21.624,21.624,0,0,1-8.674,920.635Zm0-29.357a7.769,7.769,0,0,0-7.754,7.758,7.759,7.759,0,0,0,7.754,7.747A7.759,7.759,0,0,0-.92,899.036,7.769,7.769,0,0,0-8.674,891.277Z" transform="translate(126.358 153.577)" fill="#ecb025"/>
    <path id="Path_62" data-name="Path 62" d="M-14.423,905.2A14.678,14.678,0,0,1-29.1,919.87,14.677,14.677,0,0,1-43.776,905.2,14.678,14.678,0,0,1-29.1,890.517,14.679,14.679,0,0,1-14.423,905.2Z" transform="translate(84.648 194.018)" fill="#c6c6c6"/>
    <path id="Path_63" data-name="Path 63" d="M-23.867,932.033a21.625,21.625,0,0,1-21.6-21.6,21.626,21.626,0,0,1,21.6-21.607A21.626,21.626,0,0,1-2.26,910.43,21.626,21.626,0,0,1-23.867,932.033Zm0-29.357a7.762,7.762,0,0,0-7.75,7.754,7.761,7.761,0,0,0,7.75,7.75,7.762,7.762,0,0,0,7.754-7.75A7.763,7.763,0,0,0-23.867,902.675Z" transform="translate(79.413 188.783)" fill="#ecb025"/>
    <path id="Path_64" data-name="Path 64" d="M3.305,877.345A14.676,14.676,0,0,1-11.373,892.02a14.679,14.679,0,0,1-14.679-14.675,14.685,14.685,0,0,1,14.679-14.682A14.683,14.683,0,0,1,3.305,877.345Z" transform="translate(139.413 107.952)" fill="#c6c6c6"/>
    <path id="Path_65" data-name="Path 65" d="M-6.146,904.178a21.63,21.63,0,0,1-21.6-21.607,21.623,21.623,0,0,1,21.6-21.6,21.627,21.627,0,0,1,21.607,21.6A21.635,21.635,0,0,1-6.146,904.178Zm0-29.358a7.755,7.755,0,0,0-7.746,7.75,7.758,7.758,0,0,0,7.746,7.754,7.766,7.766,0,0,0,7.759-7.754A7.763,7.763,0,0,0-6.146,874.82Z" transform="translate(134.182 102.726)" fill="#ecb025"/>
    <path id="Path_66" data-name="Path 66" d="M-27.08,893.8a14.681,14.681,0,0,1-14.679,14.675A14.681,14.681,0,0,1-56.437,893.8a14.683,14.683,0,0,1,14.679-14.682A14.683,14.683,0,0,1-27.08,893.8Z" transform="translate(45.527 158.808)" fill="#c6c6c6"/>
    <path id="Path_67" data-name="Path 67" d="M-36.527,920.635a21.624,21.624,0,0,1-21.6-21.6,21.631,21.631,0,0,1,21.6-21.607A21.634,21.634,0,0,1-14.92,899.036,21.627,21.627,0,0,1-36.527,920.635Zm0-29.357a7.763,7.763,0,0,0-7.75,7.758,7.753,7.753,0,0,0,7.75,7.747,7.759,7.759,0,0,0,7.754-7.747A7.769,7.769,0,0,0-36.527,891.277Z" transform="translate(40.295 153.577)" fill="#ecb025"/>
    <path id="Path_68" data-name="Path 68" d="M-29.612,876.077A14.678,14.678,0,0,1-44.29,890.751a14.678,14.678,0,0,1-14.679-14.674A14.679,14.679,0,0,1-44.29,861.4,14.679,14.679,0,0,1-29.612,876.077Z" transform="translate(37.703 104.043)" fill="#c6c6c6"/>
    <path id="Path_69" data-name="Path 69" d="M-39.059,902.914a21.63,21.63,0,0,1-21.6-21.6,21.634,21.634,0,0,1,21.6-21.607,21.634,21.634,0,0,1,21.6,21.607A21.63,21.63,0,0,1-39.059,902.914Zm0-29.357a7.762,7.762,0,0,0-7.75,7.754,7.759,7.759,0,0,0,7.75,7.75,7.762,7.762,0,0,0,7.754-7.75A7.766,7.766,0,0,0-39.059,873.557Z" transform="translate(32.472 98.809)" fill="#ecb025"/>
  </g>
</svg>
